<svg width="409" height="360" xmlns="http://www.w3.org/2000/svg" xmlns:xlink="http://www.w3.org/1999/xlink" xml:space="preserve" overflow="hidden"><g transform="translate(-183 -120)"><path d="M212.929 127.5 212.929 127.5C210.858 127.5 209.179 129.179 209.179 131.25L210 341.25 183.75 341.25 183.75 213.75 176.25 213.75 176.25 341.25 150 341.25 150 131.25C150 129.179 148.321 127.5 146.25 127.5 144.179 127.5 142.5 129.179 142.5 131.25L142.5 348.75 217.5 348.75 216.664 131.25C216.664 129.185 214.994 127.508 212.929 127.5Z" transform="matrix(1.13611 0 0 1 183 120)"/><path d="M180 71.25C196.569 71.25 210 57.8186 210 41.25 210 24.6814 196.569 11.25 180 11.25 163.431 11.25 150 24.6814 150 41.25 150.019 57.8107 163.439 71.2313 180 71.25ZM180 18.75C192.426 18.75 202.5 28.8236 202.5 41.25 202.5 53.6764 192.426 63.75 180 63.75 167.574 63.75 157.5 53.6764 157.5 41.25 157.512 28.8287 167.579 18.7624 180 18.75Z" transform="matrix(1.13611 0 0 1 183 120)"/><path d="M251.089 197.79 239.302 114.229C238.966 111.407 238.117 108.669 236.798 106.151 235.964 104.633 234.979 103.203 233.857 101.884 225.618 93.1061 215.329 86.5103 203.914 82.6875 196.345 80.0584 188.387 78.7271 180.375 78.75 180.128 78.855 179.849 78.855 179.603 78.75 171.614 78.723 163.678 80.0483 156.131 82.6687 144.632 86.523 134.276 93.1841 126 102.049 124.938 103.322 124.002 104.696 123.206 106.151 121.887 108.67 121.038 111.409 120.701 114.232L108.893 197.963C107.768 210.004 113.498 215.07 118.504 217.2 118.967 217.399 119.466 217.501 119.97 217.5 122.041 217.5 123.72 215.822 123.72 213.75 123.72 212.247 122.823 210.889 121.44 210.3 118.894 209.216 115.594 206.831 116.34 198.836L128.122 115.283C128.338 113.355 128.9 111.483 129.78 109.755 130.307 108.787 130.921 107.87 131.614 107.014 139.029 99.1174 148.292 93.1894 158.569 89.7637 165.206 87.4339 172.189 86.2459 179.224 86.25 179.348 86.25 179.471 86.25 179.599 86.25 179.734 86.2301 179.868 86.2024 180 86.1675 180.133 86.2024 180.269 86.2301 180.405 86.25L180.427 86.25C187.598 86.2155 194.721 87.4114 201.488 89.7863 211.676 93.1815 220.867 99.0431 228.244 106.849 228.994 107.752 229.656 108.725 230.22 109.755 231.1 111.481 231.661 113.353 231.878 115.279L243.641 198.664C244.391 206.831 241.106 209.216 238.56 210.289 236.648 211.086 235.745 213.281 236.541 215.193 237.128 216.599 238.506 217.511 240.03 217.5 240.534 217.501 241.033 217.399 241.496 217.2 246.503 215.07 252.236 210 251.089 197.79Z" transform="matrix(1.13611 0 0 1 183 120)"/></g></svg>